<svg width="24" height="24" viewBox="0 0 34 34" fill="none" xmlns="http://www.w3.org/2000/svg">
<g clip-path="url(#clip0_65_47)">
<path d="M31.6727 27.7919C28.0595 26.1602 27.922 19.1563 27.9194 18.9796V14.2808C27.9194 9.75846 25.1559 5.86973 21.229 4.21395C21.2205 1.88889 19.3269 0 17.0001 0C14.6732 0 12.7796 1.889 12.7711 4.21384C8.84435 5.86962 6.08084 9.75835 6.08084 14.2807V18.9795C6.07829 19.1562 5.94073 26.1601 2.32745 27.7918C1.91584 27.9778 1.68962 28.4258 1.78478 28.8674C1.87984 29.309 2.27034 29.6244 2.72206 29.6244H11.8821C12.0699 30.6574 12.5583 31.6184 13.3054 32.3968C14.2976 33.4306 15.6097 33.9999 16.9999 33.9999C18.3902 33.9999 19.7024 33.4306 20.6945 32.3968C21.4416 31.6183 21.9301 30.6573 22.1178 29.6244H31.2778C31.7295 29.6244 32.1199 29.3091 32.2151 28.8674C32.3104 28.4258 32.0843 27.9778 31.6727 27.7919ZM26.913 24.4367C27.2929 25.5882 27.8307 26.7447 28.5934 27.707H5.40668C6.16923 26.7448 6.70707 25.5884 7.0869 24.4367H26.913ZM17.0001 1.9175C18.0526 1.9175 18.9425 2.62473 19.2209 3.58873C18.5036 3.43995 17.7608 3.36151 17.0001 3.36151C16.2394 3.36151 15.4966 3.43989 14.7792 3.58873C15.0577 2.62478 15.9476 1.9175 17.0001 1.9175ZM7.99835 18.9854V14.2806C7.99835 9.31713 12.0365 5.27901 17.0001 5.27901C21.9637 5.27901 26.0018 9.31713 26.0018 14.2806V18.9932C26.0031 19.1374 26.0255 20.6531 26.4075 22.519H7.5924C7.97463 20.6514 7.99718 19.133 7.99835 18.9854ZM17.0001 32.0826C15.5367 32.0826 14.2595 31.0274 13.8496 29.6244H20.1505C19.7405 31.0274 18.4636 32.0826 17.0001 32.0826Z" fill="black"/>
<path d="M17.0001 6.62421C12.8751 6.62421 9.51917 9.98005 9.51917 14.105C9.51917 14.6345 9.94844 15.0638 10.4779 15.0638C11.0074 15.0638 11.4367 14.6345 11.4367 14.105C11.4367 11.0374 13.9325 8.54171 17.0002 8.54171C17.5297 8.54171 17.959 8.11243 17.959 7.58293C17.9589 7.05337 17.5296 6.62421 17.0001 6.62421Z" fill="black"/>
</g>
<defs>
<clipPath id="clip0_65_47">
<rect width="34" height="34" fill="white"/>
</clipPath>
</defs>
</svg>
