<svg width="22" height="22" viewBox="0 0 22 22" fill="none" xmlns="http://www.w3.org/2000/svg">
<mask id="path-1-inside-1_1737_28769" fill="white">
<path d="M10.9998 21.6563C8.23591 21.6553 5.58059 20.5804 3.59424 18.6586C1.6079 16.7368 0.44594 14.1184 0.35361 11.3561C0.26128 8.59376 1.2458 5.90363 3.09939 3.85347C4.95297 1.80331 7.53059 0.553529 10.2882 0.3679C10.3352 0.364867 10.3824 0.371541 10.4268 0.387507C10.4711 0.403474 10.5117 0.428392 10.546 0.460712C10.5806 0.492763 10.6082 0.531579 10.6271 0.574748C10.646 0.617917 10.6559 0.664516 10.656 0.71165V11.3438H21.2882C21.3354 11.3437 21.3822 11.3533 21.4256 11.3721C21.4689 11.3909 21.5079 11.4184 21.5402 11.4529C21.5724 11.4874 21.5972 11.5282 21.613 11.5727C21.6288 11.6172 21.6353 11.6645 21.632 11.7116C21.4467 14.4069 20.2466 16.9316 18.2736 18.7771C16.3006 20.6225 13.7013 21.6514 10.9998 21.6563ZM9.96852 1.08634C8.09472 1.2809 6.3144 2.00244 4.83387 3.16734C3.35333 4.33224 2.23318 5.89282 1.60321 7.66824C0.973246 9.44366 0.859253 11.3612 1.27444 13.1988C1.68963 15.0364 2.617 16.7186 3.94911 18.0507C5.28121 19.3828 6.9635 20.3102 8.80105 20.7254C10.6386 21.1406 12.5562 21.0266 14.3316 20.3966C16.107 19.7667 17.6676 18.6465 18.8325 17.166C19.9974 15.6855 20.719 13.9051 20.9135 12.0313H10.3123C10.2211 12.0313 10.1337 11.9951 10.0692 11.9307C10.0047 11.8662 9.96852 11.7788 9.96852 11.6876V1.08634Z"/>
</mask>
<path d="M10.9998 21.6563C8.23591 21.6553 5.58059 20.5804 3.59424 18.6586C1.6079 16.7368 0.44594 14.1184 0.35361 11.3561C0.26128 8.59376 1.2458 5.90363 3.09939 3.85347C4.95297 1.80331 7.53059 0.553529 10.2882 0.3679C10.3352 0.364867 10.3824 0.371541 10.4268 0.387507C10.4711 0.403474 10.5117 0.428392 10.546 0.460712C10.5806 0.492763 10.6082 0.531579 10.6271 0.574748C10.646 0.617917 10.6559 0.664516 10.656 0.71165V11.3438H21.2882C21.3354 11.3437 21.3822 11.3533 21.4256 11.3721C21.4689 11.3909 21.5079 11.4184 21.5402 11.4529C21.5724 11.4874 21.5972 11.5282 21.613 11.5727C21.6288 11.6172 21.6353 11.6645 21.632 11.7116C21.4467 14.4069 20.2466 16.9316 18.2736 18.7771C16.3006 20.6225 13.7013 21.6514 10.9998 21.6563ZM9.96852 1.08634C8.09472 1.2809 6.3144 2.00244 4.83387 3.16734C3.35333 4.33224 2.23318 5.89282 1.60321 7.66824C0.973246 9.44366 0.859253 11.3612 1.27444 13.1988C1.68963 15.0364 2.617 16.7186 3.94911 18.0507C5.28121 19.3828 6.9635 20.3102 8.80105 20.7254C10.6386 21.1406 12.5562 21.0266 14.3316 20.3966C16.107 19.7667 17.6676 18.6465 18.8325 17.166C19.9974 15.6855 20.719 13.9051 20.9135 12.0313H10.3123C10.2211 12.0313 10.1337 11.9951 10.0692 11.9307C10.0047 11.8662 9.96852 11.7788 9.96852 11.6876V1.08634Z" fill="#858585"/>
<path d="M10.9998 21.6563L10.999 23.6563L11.0034 23.6563L10.9998 21.6563ZM10.2882 0.3679L10.1595 -1.62796L10.1539 -1.62758L10.2882 0.3679ZM10.546 0.460712L9.17471 1.91657L9.18035 1.92188L9.18603 1.92715L10.546 0.460712ZM10.656 0.71165H12.656L12.656 0.705216L10.656 0.71165ZM10.656 11.3438H8.65602V13.3438H10.656V11.3438ZM21.2882 11.3438V13.3438L21.2931 13.3438L21.2882 11.3438ZM21.632 11.7116L19.6369 11.5716L19.6367 11.5745L21.632 11.7116ZM9.96852 1.08634H11.9685V-1.13208L9.76196 -0.902968L9.96852 1.08634ZM20.9135 12.0313L22.9028 12.2379L23.1319 10.0313H20.9135V12.0313ZM11.0005 19.6563C8.75542 19.6555 6.59846 18.7823 4.98492 17.2212L2.20357 20.096C4.56272 22.3785 7.7164 23.6551 10.999 23.6563L11.0005 19.6563ZM4.98492 17.2212C3.37137 15.6601 2.42749 13.5331 2.35249 11.2893L-1.64527 11.4229C-1.53561 14.7036 -0.155574 17.8135 2.20357 20.096L4.98492 17.2212ZM2.35249 11.2893C2.27749 9.04539 3.07724 6.86015 4.58293 5.19477L1.61584 2.51217C-0.585629 4.94711 -1.75493 8.14213 -1.64527 11.4229L2.35249 11.2893ZM4.58293 5.19477C6.08863 3.5294 8.18247 2.51417 10.4225 2.36338L10.1539 -1.62758C6.8787 -1.40712 3.81731 0.0772333 1.61584 2.51217L4.58293 5.19477ZM10.4169 2.36376C10.1902 2.37837 9.96301 2.34621 9.74932 2.26928L11.1042 -1.49427C10.8018 -1.60313 10.4802 -1.64864 10.1595 -1.62796L10.4169 2.36376ZM9.74932 2.26928C9.53563 2.19235 9.34004 2.0723 9.17471 1.91657L11.9173 -0.995143C11.6834 -1.21551 11.4066 -1.38541 11.1042 -1.49427L9.74932 2.26928ZM9.18603 1.92715C9.01951 1.77272 8.88654 1.5857 8.79536 1.3777L12.4588 -0.228206C12.3298 -0.522537 12.1416 -0.787191 11.906 -1.00572L9.18603 1.92715ZM8.79536 1.3777C8.70419 1.16971 8.65676 0.945182 8.65603 0.718084L12.656 0.705216C12.655 0.38385 12.5879 0.0661278 12.4588 -0.228206L8.79536 1.3777ZM8.65602 0.71165V11.3438H12.656V0.71165H8.65602ZM10.656 13.3438H21.2882V9.34384H10.656V13.3438ZM21.2931 13.3438C21.0655 13.3444 20.8402 13.298 20.6313 13.2076L22.2198 9.53657C21.9242 9.40866 21.6054 9.34305 21.2833 9.34384L21.2931 13.3438ZM20.6313 13.2076C20.4224 13.1173 20.2344 12.9848 20.079 12.8185L23.0014 10.0873C22.7815 9.85193 22.5154 9.66447 22.2198 9.53657L20.6313 13.2076ZM20.079 12.8185C19.9236 12.6522 19.8041 12.4556 19.728 12.2411L23.498 10.9043C23.3904 10.6007 23.2213 10.3226 23.0014 10.0873L20.079 12.8185ZM19.728 12.2411C19.652 12.0266 19.6209 11.7987 19.6369 11.5716L23.627 11.8517C23.6496 11.5303 23.6057 11.2078 23.498 10.9043L19.728 12.2411ZM19.6367 11.5745C19.4861 13.7648 18.5108 15.8167 16.9074 17.3164L19.6398 20.2377C21.9824 18.0466 23.4073 15.0489 23.6272 11.8488L19.6367 11.5745ZM16.9074 17.3164C15.304 18.8162 13.1916 19.6523 10.9961 19.6563L11.0034 23.6563C14.211 23.6505 17.2972 22.4288 19.6398 20.2377L16.9074 17.3164ZM9.76196 -0.902968C7.51223 -0.669369 5.37473 0.196927 3.59716 1.59554L6.07057 4.73914C7.25407 3.80795 8.67721 3.23117 10.1751 3.07564L9.76196 -0.902968ZM3.59716 1.59554C1.81958 2.99415 0.474703 4.86782 -0.281651 6.99944L3.48808 8.33704C3.99165 6.91781 4.88707 5.67033 6.07057 4.73914L3.59716 1.59554ZM-0.281651 6.99944C-1.03801 9.13106 -1.17487 11.4334 -0.676381 13.6396L3.22527 12.758C2.89337 11.2891 2.9845 9.75626 3.48808 8.33704L-0.281651 6.99944ZM-0.676381 13.6396C-0.177894 15.8458 0.935536 17.8656 2.53489 19.465L5.36332 16.6365C4.29847 15.5717 3.55716 14.2269 3.22527 12.758L-0.676381 13.6396ZM2.53489 19.465C4.13425 21.0643 6.15406 22.1777 8.36027 22.6762L9.24184 18.7746C7.77295 18.4427 6.42816 17.7014 5.36332 16.6365L2.53489 19.465ZM8.36027 22.6762C10.5665 23.1747 12.8688 23.0379 15.0004 22.2815L13.6628 18.5118C12.2436 19.0154 10.7107 19.1065 9.24184 18.7746L8.36027 22.6762ZM15.0004 22.2815C17.132 21.5252 19.0057 20.1803 20.4043 18.4027L17.2607 15.9293C16.3295 17.1128 15.082 18.0082 13.6628 18.5118L15.0004 22.2815ZM20.4043 18.4027C21.8029 16.6251 22.6692 14.4876 22.9028 12.2379L18.9242 11.8248C18.7687 13.3226 18.1919 14.7458 17.2607 15.9293L20.4043 18.4027ZM20.9135 10.0313H10.3123V14.0313H20.9135V10.0313ZM10.3123 10.0313C10.7515 10.0313 11.1728 10.2058 11.4834 10.5164L8.65499 13.3449C9.09453 13.7844 9.69067 14.0313 10.3123 14.0313V10.0313ZM11.4834 10.5164C11.794 10.8271 11.9685 11.2483 11.9685 11.6876H7.96852C7.96852 12.3092 8.21544 12.9053 8.65499 13.3449L11.4834 10.5164ZM11.9685 11.6876V1.08634H7.96852V11.6876H11.9685Z" fill="#6C757D" mask="url(#path-1-inside-1_1737_28769)"/>
</svg>
