<svg width="34" height="34" viewBox="0 0 34 34" fill="none" xmlns="http://www.w3.org/2000/svg">
<path d="M25.5 0H13.8125C12.6395 0 11.6875 0.950938 11.6875 2.125H23.375V10.625H31.875V27.625H24.4375V29.75H31.875C33.0491 29.75 34 28.7991 34 27.625V8.5L25.5 0ZM25.5 8.5V3.00475L30.9942 8.5H25.5ZM2.125 4.25C0.950938 4.25 0 5.202 0 6.375V31.875C0 33.0491 0.950938 34 2.125 34H20.1875C21.3616 34 22.3125 33.0491 22.3125 31.875V12.75L13.8125 4.24894L2.125 4.25ZM20.1875 31.875H2.125V6.375H11.6875V14.875H20.1875V31.875ZM13.8125 12.75V7.25475L19.3067 12.75H13.8125Z" fill="black"/>
</svg>
