<svg width="30" height="30" viewBox="0 0 30 30" fill="none" xmlns="http://www.w3.org/2000/svg">
<path fill-rule="evenodd" clip-rule="evenodd" d="M20.156 15C20.156 14.7513 20.0572 14.5129 19.8814 14.3371C19.7056 14.1612 19.4671 14.0625 19.2185 14.0625H5.50222L7.95347 11.9625C8.04704 11.8824 8.12391 11.7846 8.1797 11.6748C8.23549 11.565 8.2691 11.4452 8.27862 11.3224C8.28814 11.1996 8.27337 11.0762 8.23517 10.9591C8.19697 10.842 8.13608 10.7335 8.05597 10.64C7.97586 10.5464 7.87811 10.4695 7.7683 10.4137C7.65848 10.3579 7.53875 10.3243 7.41595 10.3148C7.29314 10.3053 7.16967 10.3201 7.05257 10.3583C6.93547 10.3965 6.82704 10.4574 6.73347 10.5375L2.35847 14.2875C2.25555 14.3755 2.17292 14.4847 2.11627 14.6077C2.05961 14.7307 2.03027 14.8645 2.03027 15C2.03027 15.1354 2.05961 15.2692 2.11627 15.3922C2.17292 15.5152 2.25555 15.6245 2.35847 15.7125L6.73347 19.4625C6.92244 19.6242 7.16793 19.7043 7.41595 19.6851C7.66397 19.6659 7.89419 19.5489 8.05597 19.36C8.21775 19.171 8.29784 18.9255 8.27862 18.6775C8.2594 18.4295 8.14244 18.1992 7.95347 18.0375L5.50347 15.9375H19.2185C19.4671 15.9375 19.7056 15.8387 19.8814 15.6629C20.0572 15.4871 20.156 15.2486 20.156 15Z" fill="#003554"/>
<path d="M11.7188 10C11.7188 10.8775 11.7187 11.3162 11.93 11.6325C12.021 11.7685 12.1378 11.8853 12.2738 11.9763C12.59 12.1875 13.0287 12.1875 13.9062 12.1875H19.2188C19.9647 12.1875 20.68 12.4838 21.2075 13.0113C21.7349 13.5387 22.0312 14.2541 22.0312 15C22.0312 15.7459 21.7349 16.4613 21.2075 16.9887C20.68 17.5162 19.9647 17.8125 19.2188 17.8125H13.9062C13.0287 17.8125 12.59 17.8125 12.2738 18.0225C12.1377 18.1139 12.0209 18.2311 11.93 18.3675C11.7187 18.6838 11.7188 19.1225 11.7188 20C11.7188 23.535 11.7187 25.3038 12.8175 26.4013C13.915 27.5 15.6825 27.5 19.2175 27.5H20.4675C24.005 27.5 25.7713 27.5 26.87 26.4013C27.9688 25.3038 27.9688 23.535 27.9688 20V10C27.9688 6.465 27.9688 4.69625 26.87 3.59875C25.7713 2.5 24.0037 2.5 20.4688 2.5H19.2188C15.6825 2.5 13.915 2.5 12.8175 3.59875C11.7187 4.69625 11.7188 6.465 11.7188 10Z" fill="#003554"/>
</svg>
