<svg width="26" height="26" viewBox="0 0 26 26" fill="none" xmlns="http://www.w3.org/2000/svg">
<path fill-rule="evenodd" clip-rule="evenodd" d="M18.156 13.0325C18.156 12.779 18.0572 12.5358 17.8814 12.3565C17.7056 12.1772 17.4671 12.0765 17.2185 12.0765H3.50222L5.95347 9.93501C6.04704 9.85333 6.12391 9.75364 6.1797 9.64166C6.23549 9.52967 6.2691 9.40758 6.27862 9.28235C6.28814 9.15712 6.27337 9.0312 6.23517 8.91179C6.19697 8.79237 6.13608 8.6818 6.05597 8.58639C5.97586 8.49097 5.87811 8.41258 5.7683 8.35569C5.65848 8.2988 5.53875 8.26452 5.41595 8.25481C5.29314 8.24511 5.16967 8.26016 5.05257 8.29912C4.93547 8.33808 4.82704 8.40017 4.73347 8.48186L0.35847 12.3059C0.255552 12.3957 0.172923 12.5071 0.116267 12.6325C0.0596106 12.758 0.0302734 12.8944 0.0302734 13.0325C0.0302734 13.1706 0.0596106 13.3071 0.116267 13.4325C0.172923 13.5579 0.255552 13.6694 0.35847 13.7591L4.73347 17.5832C4.92244 17.7482 5.16793 17.8298 5.41595 17.8102C5.66397 17.7906 5.89419 17.6714 6.05597 17.4787C6.21775 17.286 6.29784 17.0356 6.27862 16.7827C6.2594 16.5298 6.14244 16.295 5.95347 16.13L3.50347 13.9885H17.2185C17.4671 13.9885 17.7056 13.8878 17.8814 13.7085C18.0572 13.5292 18.156 13.2861 18.156 13.0325Z" fill="#003554"/>
<path d="M9.71875 7.93333C9.71875 8.82817 9.71875 9.27559 9.93 9.59808C10.021 9.73675 10.1378 9.85585 10.2738 9.94863C10.59 10.1641 11.0287 10.1641 11.9062 10.1641H17.2188C17.9647 10.1641 18.68 10.4662 19.2075 11.0041C19.7349 11.542 20.0312 12.2715 20.0312 13.0321C20.0312 13.7928 19.7349 14.5223 19.2075 15.0601C18.68 15.598 17.9647 15.9002 17.2188 15.9002H11.9062C11.0287 15.9002 10.59 15.9002 10.2738 16.1143C10.1377 16.2075 10.0209 16.327 9.93 16.4661C9.71875 16.7886 9.71875 17.2361 9.71875 18.1309C9.71875 21.7357 9.71875 23.5394 10.8175 24.6586C11.915 25.7791 13.6825 25.7791 17.2175 25.7791H18.4675C22.005 25.7791 23.7713 25.7791 24.87 24.6586C25.9688 23.5394 25.9688 21.7357 25.9688 18.1309V7.93333C25.9688 4.32849 25.9688 2.5248 24.87 1.40561C23.7713 0.285156 22.0037 0.285156 18.4688 0.285156H17.2188C13.6825 0.285156 11.915 0.285156 10.8175 1.40561C9.71875 2.5248 9.71875 4.32849 9.71875 7.93333Z" fill="#003554"/>
</svg>
