<svg width="97" height="89" viewBox="0 0 97 89" fill="none" xmlns="http://www.w3.org/2000/svg">
<ellipse cx="48.5" cy="86.6414" rx="48.5" ry="2.23355" fill="#CDEFFF"/>
<ellipse cx="28.0789" cy="42.6086" rx="5.10526" ry="0.957237" fill="#CDEFFF"/>
<ellipse cx="27.4408" cy="38.1415" rx="2.55263" ry="2.87171" fill="#003554"/>
<ellipse cx="60.625" cy="42.6086" rx="5.10526" ry="0.957237" fill="#CDEFFF"/>
<ellipse cx="60.625" cy="38.1415" rx="2.55263" ry="2.87171" fill="#003554"/>
<mask id="path-6-outside-1_1585_26891" maskUnits="userSpaceOnUse" x="35.375" y="53.7105" width="20" height="10" fill="black">
<rect fill="white" x="35.375" y="53.7105" width="20" height="10"/>
<path d="M54.2434 55.0526C54.2434 56.0583 54.0123 57.0541 53.5633 57.9832C53.1144 58.9123 52.4563 59.7565 51.6267 60.4676C50.797 61.1787 49.8121 61.7427 48.7282 62.1276C47.6442 62.5124 46.4825 62.7105 45.3092 62.7105C44.136 62.7105 42.9742 62.5124 41.8902 62.1276C40.8063 61.7427 39.8214 61.1787 38.9918 60.4676C38.1622 59.7565 37.5041 58.9123 37.0551 57.9832C36.6061 57.0541 36.375 56.0583 36.375 55.0526L45.3092 55.0526H54.2434Z"/>
</mask>
<path d="M54.2434 55.0526C54.2434 56.0583 54.0123 57.0541 53.5633 57.9832C53.1144 58.9123 52.4563 59.7565 51.6267 60.4676C50.797 61.1787 49.8121 61.7427 48.7282 62.1276C47.6442 62.5124 46.4825 62.7105 45.3092 62.7105C44.136 62.7105 42.9742 62.5124 41.8902 62.1276C40.8063 61.7427 39.8214 61.1787 38.9918 60.4676C38.1622 59.7565 37.5041 58.9123 37.0551 57.9832C36.6061 57.0541 36.375 56.0583 36.375 55.0526L45.3092 55.0526H54.2434Z" fill="#003554"/>
<path d="M54.2434 55.0526C54.2434 56.0583 54.0123 57.0541 53.5633 57.9832C53.1144 58.9123 52.4563 59.7565 51.6267 60.4676C50.797 61.1787 49.8121 61.7427 48.7282 62.1276C47.6442 62.5124 46.4825 62.7105 45.3092 62.7105C44.136 62.7105 42.9742 62.5124 41.8902 62.1276C40.8063 61.7427 39.8214 61.1787 38.9918 60.4676C38.1622 59.7565 37.5041 58.9123 37.0551 57.9832C36.6061 57.0541 36.375 56.0583 36.375 55.0526L45.3092 55.0526H54.2434Z" stroke="#003554" stroke-width="1.6" mask="url(#path-6-outside-1_1585_26891)"/>
<path d="M44.9901 81.9408C67.7072 81.9408 86.2368 64.1072 86.2368 41.9704C86.2368 19.8335 67.7072 2 44.9901 2C22.273 2 3.74341 19.8335 3.74341 41.9704C3.74341 64.1072 22.273 81.9408 44.9901 81.9408Z" stroke="#003554" stroke-width="4"/>
</svg>
