<svg width="145" height="147" viewBox="0 0 145 147" fill="none" xmlns="http://www.w3.org/2000/svg">
<ellipse cx="72.582" cy="102.939" rx="34.6934" ry="1.59774" fill="#FF0000" fill-opacity="0.2"/>
<mask id="path-2-outside-1_1602_26869" maskUnits="userSpaceOnUse" x="62.794" y="78.7497" width="14.1951" height="8.34661" fill="black">
<rect fill="white" x="62.794" y="78.7497" width="14.1951" height="8.34661"/>
<path d="M63.962 80.024C63.9448 80.7131 64.0812 81.3994 64.3635 82.0436C64.6457 82.6877 65.0683 83.2772 65.607 83.7782C66.1458 84.2793 66.7901 84.6822 67.5033 84.9639C68.2165 85.2456 68.9846 85.4006 69.7636 85.42C70.5427 85.4394 71.3175 85.3229 72.0439 85.0771C72.7702 84.8314 73.4339 84.4611 73.9969 83.9875C74.56 83.5139 75.0114 82.9463 75.3254 82.317C75.6394 81.6877 75.8099 81.0091 75.8271 80.3199L69.8945 80.1719L63.962 80.024Z"/>
</mask>
<path d="M63.962 80.024C63.9448 80.7131 64.0812 81.3994 64.3635 82.0436C64.6457 82.6877 65.0683 83.2772 65.607 83.7782C66.1458 84.2793 66.7901 84.6822 67.5033 84.9639C68.2165 85.2456 68.9846 85.4006 69.7636 85.42C70.5427 85.4394 71.3175 85.3229 72.0439 85.0771C72.7702 84.8314 73.4339 84.4611 73.9969 83.9875C74.56 83.5139 75.0114 82.9463 75.3254 82.317C75.6394 81.6877 75.8099 81.0091 75.8271 80.3199L69.8945 80.1719L63.962 80.024Z" fill="#FF0000"/>
<path d="M63.962 80.024C63.9448 80.7131 64.0812 81.3994 64.3635 82.0436C64.6457 82.6877 65.0683 83.2772 65.607 83.7782C66.1458 84.2793 66.7901 84.6822 67.5033 84.9639C68.2165 85.2456 68.9846 85.4006 69.7636 85.42C70.5427 85.4394 71.3175 85.3229 72.0439 85.0771C72.7702 84.8314 73.4339 84.4611 73.9969 83.9875C74.56 83.5139 75.0114 82.9463 75.3254 82.317C75.6394 81.6877 75.8099 81.0091 75.8271 80.3199L69.8945 80.1719L63.962 80.024Z" stroke="#FF0000" stroke-width="1.6" mask="url(#path-2-outside-1_1602_26869)"/>
<ellipse cx="59.63" cy="68.8412" rx="3.08114" ry="1.79693" transform="rotate(-92.4916 59.63 68.8412)" fill="#FF0000"/>
<path d="M52.7282 64.7848C52.6381 64.9367 52.6878 65.1339 52.8454 65.2137C53.486 65.538 54.1927 65.7146 54.9133 65.7288C55.7407 65.7451 56.5581 65.5466 57.286 65.1528C58.0138 64.7589 58.6271 64.1831 59.066 63.4815C59.4482 62.8705 59.6869 62.1823 59.7658 61.4686C59.7852 61.2931 59.6473 61.1436 59.4708 61.136V61.136C59.2944 61.1283 59.1464 61.2654 59.1252 61.4408C59.0522 62.0439 58.8474 62.625 58.5238 63.1423C58.1435 63.7501 57.6121 64.249 56.9815 64.5903C56.351 64.9315 55.6427 65.1035 54.9259 65.0893C54.3158 65.0773 53.7173 64.9309 53.1725 64.6621C53.0141 64.584 52.8184 64.6329 52.7282 64.7848V64.7848Z" fill="#FF0000"/>
<ellipse cx="3.21093" cy="1.74202" rx="3.21093" ry="1.74202" transform="matrix(0.011409 -0.999935 -0.999935 -0.0114092 80.88 71.923)" fill="#FF0000"/>
<path d="M86.464 64.824C86.5362 64.9851 86.4644 65.1754 86.2988 65.2367C85.6254 65.4858 84.9032 65.5808 84.1856 65.5127C83.3618 65.4346 82.5723 65.1442 81.8941 64.6699C81.2159 64.1956 80.6723 63.5536 80.3162 62.8066C80.0061 62.156 79.8475 61.445 79.8505 60.727C79.8512 60.5504 80.0053 60.4176 80.1815 60.4302V60.4302C80.3576 60.4427 80.489 60.5958 80.4901 60.7724C80.4939 61.3799 80.6311 61.9806 80.8936 62.5314C81.2021 63.1786 81.6731 63.7348 82.2607 64.1457C82.8482 64.5567 83.5323 64.8082 84.246 64.876C84.8535 64.9336 85.4648 64.8564 86.0367 64.6515C86.203 64.5919 86.3918 64.6628 86.464 64.824V64.824Z" fill="#FF0000"/>
<path d="M70.0715 100.145C86.6182 100.145 100.146 87.151 100.146 70.9838C100.146 54.8165 86.6182 41.8223 70.0715 41.8223C53.5247 41.8223 39.9972 54.8165 39.9972 70.9838C39.9972 87.151 53.5247 100.145 70.0715 100.145Z" stroke="#FF0000" stroke-width="4"/>
<path d="M91.896 51.431C90.9844 49.6043 61.7749 41.9754 49.2129 53.2256C46.7021 53.2237 50.1286 49.5744 59.6822 44.3046C59.6806 43.7473 64.4442 42.076 70.9045 42.0575C77.3648 42.0389 91.8944 50.8738 91.896 51.431Z" fill="#FF0000" fill-opacity="0.2"/>
<circle cx="5.07392" cy="74.9136" r="5.07392" fill="#FF0000"/>
<circle cx="5.07392" cy="74.9136" r="5.07392" fill="#FF0000"/>
<circle cx="3.38261" cy="3.38261" r="2.98261" transform="matrix(-1 0 0 1 145 140.161)" fill="#FF0000" fill-opacity="0.2"/>
<circle cx="3.38261" cy="3.38261" r="2.98261" transform="matrix(-1 0 0 1 145 140.161)" fill="#FF0000" fill-opacity="0.2"/>
<circle cx="3.38261" cy="3.38261" r="2.98261" transform="matrix(-1 0 0 1 145 140.161)" stroke="#FF0000" stroke-width="0.8"/>
<circle cx="66.5971" cy="2.53696" r="2.53696" fill="#FF0000"/>
<circle cx="66.5971" cy="2.53696" r="2.53696" fill="#F5F5F5" fill-opacity="0.8"/>
<circle cx="44.9814" cy="127.344" r="2.11413" fill="#FF0000" fill-opacity="0.4"/>
<circle cx="125.899" cy="50.761" r="2.11413" fill="#FF0000"/>
<circle cx="125.899" cy="50.761" r="2.11413" fill="#FF0000"/>
<circle cx="119.565" cy="102.082" r="4.25109" stroke="#FF0000" stroke-width="0.8"/>
<circle cx="26.12" cy="35.6978" r="1.69131" fill="#FF0000" fill-opacity="0.2"/>
<circle cx="26.12" cy="35.6978" r="1.69131" fill="#FF0000" fill-opacity="0.2"/>
<path d="M80.5055 29.4025C80.6544 29.5514 80.6544 29.783 80.5055 29.9319C80.4311 30.0064 80.3401 30.0395 80.2408 30.0395C80.1415 30.0395 80.0505 30.0064 79.9761 29.9319L78.4622 28.418L76.9483 29.9319C76.8738 30.0064 76.7828 30.0395 76.6835 30.0395C76.5843 30.0395 76.4933 30.0064 76.4188 29.9319C76.2699 29.783 76.2699 29.5514 76.4188 29.4025L77.9327 27.8886L76.4188 26.3747C76.2699 26.2257 76.2699 25.9941 76.4188 25.8452C76.5677 25.6963 76.7994 25.6963 76.9483 25.8452L78.4622 27.3591L79.9761 25.8452C80.125 25.6963 80.3566 25.6963 80.5055 25.8452C80.6544 25.9941 80.6544 26.2257 80.5055 26.3747L78.9916 27.8886L80.5055 29.4025Z" fill="#FF0000"/>
<path d="M8.29031 96.8304C8.43922 96.9793 8.43922 97.211 8.29031 97.3599C8.21585 97.4343 8.12485 97.4674 8.02558 97.4674C7.92631 97.4674 7.83531 97.4343 7.76086 97.3599L6.24695 95.846L4.73305 97.3599C4.6586 97.4343 4.5676 97.4674 4.46833 97.4674C4.36905 97.4674 4.27805 97.4343 4.2036 97.3599C4.05469 97.211 4.05469 96.9793 4.2036 96.8304L5.7175 95.3165L4.2036 93.8026C4.05469 93.6537 4.05469 93.4221 4.2036 93.2732C4.35251 93.1243 4.58414 93.1243 4.73305 93.2732L6.24695 94.7871L7.76086 93.2732C7.90976 93.1243 8.1414 93.1243 8.29031 93.2732C8.43922 93.4221 8.43922 93.6537 8.29031 93.8026L6.77641 95.3165L8.29031 96.8304Z" fill="#F5F5F5"/>
<path d="M96.6299 127.782C96.7457 127.898 96.7457 128.078 96.6299 128.194C96.572 128.252 96.5012 128.278 96.424 128.278C96.3468 128.278 96.276 128.252 96.2181 128.194L95.0406 127.017L93.8632 128.194C93.8053 128.252 93.7345 128.278 93.6573 128.278C93.5801 128.278 93.5093 128.252 93.4514 128.194C93.3355 128.078 93.3355 127.898 93.4514 127.782L94.6288 126.605L93.4514 125.427C93.3355 125.312 93.3355 125.131 93.4514 125.016C93.5672 124.9 93.7473 124.9 93.8632 125.016L95.0406 126.193L96.2181 125.016C96.3339 124.9 96.5141 124.9 96.6299 125.016C96.7457 125.131 96.7457 125.312 96.6299 125.427L95.4524 126.605L96.6299 127.782Z" fill="#FF0000" fill-opacity="0.2"/>
</svg>
