<svg width="153" height="156" viewBox="0 0 153 156" fill="none" xmlns="http://www.w3.org/2000/svg">
<ellipse cx="76.5869" cy="108.618" rx="36.6075" ry="1.68589" fill="#FF0000" fill-opacity="0.2"/>
<mask id="path-2-outside-1_1602_26906" maskUnits="userSpaceOnUse" x="66.4743" y="79.0271" width="15.0778" height="8.14692" fill="black">
<rect fill="white" x="66.4743" y="79.0271" width="15.0778" height="8.14692"/>
<path d="M67.6895 85.4993C67.5789 85.4982 67.4898 85.4076 67.4954 85.2972C67.5288 84.6384 67.695 83.9898 67.9868 83.3823C68.3081 82.7133 68.7753 82.1072 69.3618 81.5986C69.9482 81.09 70.6425 80.6887 71.4049 80.4178C72.1673 80.1469 72.983 80.0116 73.8052 80.0197C74.6275 80.0278 75.4403 80.1791 76.1973 80.4649C76.9542 80.7507 77.6405 81.1655 78.2169 81.6856C78.7933 82.2056 79.2485 82.8208 79.5565 83.4959C79.8363 84.109 79.9898 84.7608 80.0102 85.4201C80.0137 85.5306 79.9227 85.6194 79.8122 85.6183V85.6183C79.7017 85.6172 79.6134 85.5267 79.6096 85.4162C79.5889 84.8033 79.4455 84.1978 79.1854 83.6278C78.897 82.9958 78.4709 82.42 77.9313 81.9332C77.3918 81.4464 76.7494 81.0581 76.0409 80.7906C75.3323 80.523 74.5715 80.3814 73.8018 80.3738C73.0321 80.3663 72.2686 80.4929 71.5549 80.7465C70.8412 81.0001 70.1914 81.3757 69.6424 81.8518C69.0934 82.3279 68.656 82.8952 68.3553 83.5214C68.0841 84.0862 67.9287 84.6888 67.896 85.3012C67.8901 85.4116 67.8 85.5004 67.6895 85.4993V85.4993Z"/>
</mask>
<path d="M67.6895 85.4993C67.5789 85.4982 67.4898 85.4076 67.4954 85.2972C67.5288 84.6384 67.695 83.9898 67.9868 83.3823C68.3081 82.7133 68.7753 82.1072 69.3618 81.5986C69.9482 81.09 70.6425 80.6887 71.4049 80.4178C72.1673 80.1469 72.983 80.0116 73.8052 80.0197C74.6275 80.0278 75.4403 80.1791 76.1973 80.4649C76.9542 80.7507 77.6405 81.1655 78.2169 81.6856C78.7933 82.2056 79.2485 82.8208 79.5565 83.4959C79.8363 84.109 79.9898 84.7608 80.0102 85.4201C80.0137 85.5306 79.9227 85.6194 79.8122 85.6183V85.6183C79.7017 85.6172 79.6134 85.5267 79.6096 85.4162C79.5889 84.8033 79.4455 84.1978 79.1854 83.6278C78.897 82.9958 78.4709 82.42 77.9313 81.9332C77.3918 81.4464 76.7494 81.0581 76.0409 80.7906C75.3323 80.523 74.5715 80.3814 73.8018 80.3738C73.0321 80.3663 72.2686 80.4929 71.5549 80.7465C70.8412 81.0001 70.1914 81.3757 69.6424 81.8518C69.0934 82.3279 68.656 82.8952 68.3553 83.5214C68.0841 84.0862 67.9287 84.6888 67.896 85.3012C67.8901 85.4116 67.8 85.5004 67.6895 85.4993V85.4993Z" fill="#FF0000"/>
<path d="M67.6895 85.4993C67.5789 85.4982 67.4898 85.4076 67.4954 85.2972C67.5288 84.6384 67.695 83.9898 67.9868 83.3823C68.3081 82.7133 68.7753 82.1072 69.3618 81.5986C69.9482 81.09 70.6425 80.6887 71.4049 80.4178C72.1673 80.1469 72.983 80.0116 73.8052 80.0197C74.6275 80.0278 75.4403 80.1791 76.1973 80.4649C76.9542 80.7507 77.6405 81.1655 78.2169 81.6856C78.7933 82.2056 79.2485 82.8208 79.5565 83.4959C79.8363 84.109 79.9898 84.7608 80.0102 85.4201C80.0137 85.5306 79.9227 85.6194 79.8122 85.6183V85.6183C79.7017 85.6172 79.6134 85.5267 79.6096 85.4162C79.5889 84.8033 79.4455 84.1978 79.1854 83.6278C78.897 82.9958 78.4709 82.42 77.9313 81.9332C77.3918 81.4464 76.7494 81.0581 76.0409 80.7906C75.3323 80.523 74.5715 80.3814 73.8018 80.3738C73.0321 80.3663 72.2686 80.4929 71.5549 80.7465C70.8412 81.0001 70.1914 81.3757 69.6424 81.8518C69.0934 82.3279 68.656 82.8952 68.3553 83.5214C68.0841 84.0862 67.9287 84.6888 67.896 85.3012C67.8901 85.4116 67.8 85.5004 67.6895 85.4993V85.4993Z" stroke="#FF0000" stroke-width="1.6" mask="url(#path-2-outside-1_1602_26906)"/>
<ellipse cx="2.16757" cy="2.16755" rx="2.16757" ry="2.16755" transform="matrix(0.0702876 -0.997527 0.997527 0.0702888 60.9144 74.1067)" fill="#FF0000"/>
<path d="M55.6383 68.3588C55.5432 68.5191 55.5956 68.7272 55.7619 68.8114C56.4378 69.1535 57.1835 69.34 57.9439 69.3549C58.8169 69.3721 59.6795 69.1627 60.4475 68.7471C61.2154 68.3315 61.8626 67.7239 62.3257 66.9837C62.7291 66.3389 62.9809 65.6127 63.0641 64.8597C63.0846 64.6745 62.9391 64.5167 62.7529 64.5087V64.5087C62.5667 64.5006 62.4105 64.6453 62.3881 64.8303C62.3111 65.4667 62.095 66.0799 61.7536 66.6257C61.3523 67.2671 60.7916 67.7935 60.1263 68.1535C59.4609 68.5136 58.7135 68.6951 57.9572 68.6802C57.3135 68.6675 56.6819 68.513 56.107 68.2294C55.9399 68.1469 55.7334 68.1985 55.6383 68.3588V68.3588Z" fill="#FF0000"/>
<ellipse cx="2.16757" cy="2.16755" rx="2.16757" ry="2.16755" transform="matrix(0.0439055 -0.999036 -0.999036 -0.0439063 85.3376 73.51)" fill="#FF0000"/>
<path d="M91.2346 68.4012C91.3107 68.5713 91.235 68.7721 91.0602 68.8367C90.3496 69.0996 89.5876 69.1998 88.8304 69.1279C87.9611 69.0455 87.1281 68.7391 86.4125 68.2386C85.6969 67.7382 85.1233 67.0608 84.7476 66.2725C84.4203 65.586 84.253 64.8358 84.2561 64.0782C84.2569 63.8919 84.4195 63.7518 84.6054 63.765V63.765C84.7913 63.7782 84.9299 63.9397 84.931 64.1261C84.935 64.7671 85.0798 65.401 85.3568 65.9821C85.6823 66.6651 86.1793 67.252 86.7993 67.6856C87.4192 68.1192 88.141 68.3846 88.8942 68.4561C89.5351 68.5169 90.1801 68.4354 90.7836 68.2192C90.9591 68.1563 91.1584 68.2311 91.2346 68.4012V68.4012Z" fill="#FF0000"/>
<path d="M73.9376 105.561C91.3398 105.561 105.561 91.8953 105.561 74.9004C105.561 57.9055 91.3398 44.2404 73.9376 44.2404C56.5355 44.2404 42.3145 57.9055 42.3145 74.9004C42.3145 91.8953 56.5355 105.561 73.9376 105.561Z" stroke="#FF0000" stroke-width="4"/>
<path d="M96.9667 54.2686C96.0047 52.3411 65.1836 44.2912 51.9286 56.1622C49.2792 56.1601 52.8948 52.3095 62.9755 46.749C62.9738 46.161 68.0002 44.3974 74.817 44.3779C81.6337 44.3583 96.965 53.6806 96.9667 54.2686Z" fill="#FF0000" fill-opacity="0.2"/>
<circle cx="5.35385" cy="79.047" r="5.35385" fill="#FF0000"/>
<circle cx="5.35385" cy="79.047" r="5.35385" fill="#FF0000"/>
<circle cx="3.56924" cy="3.56924" r="3.16924" transform="matrix(-1 0 0 1 153 147.894)" fill="#FF0000" fill-opacity="0.2"/>
<circle cx="3.56924" cy="3.56924" r="3.16924" transform="matrix(-1 0 0 1 153 147.894)" fill="#FF0000" fill-opacity="0.2"/>
<circle cx="3.56924" cy="3.56924" r="3.16924" transform="matrix(-1 0 0 1 153 147.894)" stroke="#FF0000" stroke-width="0.8"/>
<circle cx="70.2713" cy="2.67693" r="2.67693" fill="#FF0000"/>
<circle cx="70.2713" cy="2.67693" r="2.67693" fill="#F5F5F5" fill-opacity="0.8"/>
<circle cx="47.4631" cy="134.37" r="2.23077" fill="#FF0000" fill-opacity="0.4"/>
<circle cx="132.845" cy="53.5615" r="2.23077" fill="#FF0000"/>
<circle cx="132.845" cy="53.5615" r="2.23077" fill="#FF0000"/>
<circle cx="126.161" cy="107.714" r="4.5077" stroke="#FF0000" stroke-width="0.8"/>
<circle cx="27.5609" cy="37.6673" r="1.78462" fill="#FF0000" fill-opacity="0.2"/>
<circle cx="27.5609" cy="37.6673" r="1.78462" fill="#FF0000" fill-opacity="0.2"/>
<path d="M84.9469 31.0243C85.104 31.1814 85.104 31.4259 84.9469 31.583C84.8683 31.6615 84.7723 31.6965 84.6675 31.6965C84.5628 31.6965 84.4668 31.6615 84.3882 31.583L82.7908 29.9856L81.1934 31.583C81.1148 31.6615 81.0188 31.6965 80.914 31.6965C80.8093 31.6965 80.7133 31.6615 80.6347 31.583C80.4776 31.4259 80.4776 31.1814 80.6347 31.0243L82.2321 29.4269L80.6347 27.8295C80.4776 27.6723 80.4776 27.4279 80.6347 27.2708C80.7918 27.1137 81.0362 27.1137 81.1934 27.2708L82.7908 28.8682L84.3882 27.2708C84.5453 27.1137 84.7897 27.1137 84.9469 27.2708C85.104 27.4279 85.104 27.6723 84.9469 27.8295L83.3494 29.4269L84.9469 31.0243Z" fill="#FF0000"/>
<path d="M8.74753 102.173C8.90465 102.33 8.90465 102.574 8.74753 102.731C8.66897 102.81 8.57295 102.845 8.4682 102.845C8.36345 102.845 8.26743 102.81 8.18887 102.731L6.59144 101.134L4.99401 102.731C4.91545 102.81 4.81943 102.845 4.71468 102.845C4.60993 102.845 4.51391 102.81 4.43535 102.731C4.27822 102.574 4.27822 102.33 4.43535 102.173L6.03278 100.575L4.43535 98.9778C4.27822 98.8207 4.27822 98.5762 4.43535 98.4191C4.59247 98.262 4.83689 98.262 4.99401 98.4191L6.59144 100.017L8.18887 98.4191C8.34599 98.262 8.5904 98.262 8.74753 98.4191C8.90465 98.5762 8.90465 98.8207 8.74753 98.9778L7.1501 100.575L8.74753 102.173Z" fill="#F5F5F5"/>
<path d="M101.961 134.832C102.083 134.955 102.083 135.145 101.961 135.267C101.9 135.328 101.825 135.355 101.744 135.355C101.662 135.355 101.588 135.328 101.527 135.267L100.284 134.024L99.0417 135.267C98.9806 135.328 98.9059 135.355 98.8244 135.355C98.7429 135.355 98.6683 135.328 98.6072 135.267C98.485 135.145 98.485 134.955 98.6072 134.832L99.8496 133.59L98.6072 132.347C98.485 132.225 98.485 132.035 98.6072 131.913C98.7294 131.791 98.9195 131.791 99.0417 131.913L100.284 133.155L101.527 131.913C101.649 131.791 101.839 131.791 101.961 131.913C102.083 132.035 102.083 132.225 101.961 132.347L100.719 133.59L101.961 134.832Z" fill="#FF0000" fill-opacity="0.2"/>
</svg>
