<svg width="22" height="24" viewBox="0 0 22 24" fill="none" xmlns="http://www.w3.org/2000/svg">
<path d="M21.3567 19.6178C18.8062 18.466 18.7092 13.5221 18.7073 13.3974V10.0806C18.7073 6.88833 16.7567 4.14334 13.9847 2.97455C13.9787 1.33334 12.642 0 10.9996 0C9.35713 0 8.02046 1.33341 8.01446 2.97448C5.24261 4.14326 3.2919 6.88825 3.2919 10.0805V13.3973C3.2901 13.522 3.193 18.466 0.642446 19.6178C0.351897 19.749 0.19221 20.0653 0.259387 20.377C0.326485 20.6887 0.602132 20.9113 0.920996 20.9113H7.38689C7.51944 21.6405 7.86422 22.3189 8.39156 22.8683C9.09195 23.598 10.0182 23.9999 10.9995 23.9999C11.9809 23.9999 12.9071 23.598 13.6074 22.8683C14.1348 22.3188 14.4796 21.6404 14.6121 20.9113H21.078C21.3968 20.9113 21.6724 20.6887 21.7396 20.377C21.8069 20.0653 21.6473 19.7491 21.3567 19.6178ZM17.997 17.2494C18.2651 18.0623 18.6447 18.8786 19.1831 19.5579H2.81602C3.35429 18.8787 3.73394 18.0624 4.00206 17.2494H17.997ZM10.9996 1.35353C11.7425 1.35353 12.3707 1.85275 12.5673 2.53322C12.0609 2.4282 11.5366 2.37283 10.9996 2.37283C10.4626 2.37283 9.9383 2.42816 9.43195 2.53322C9.62854 1.85279 10.2567 1.35353 10.9996 1.35353ZM4.64543 13.4014V10.0804C4.64543 6.5768 7.49587 3.72636 10.9996 3.72636C14.5033 3.72636 17.3538 6.5768 17.3538 10.0804V13.407C17.3547 13.5088 17.3705 14.5787 17.6402 15.8958H4.35888C4.62869 14.5774 4.64461 13.5056 4.64543 13.4014ZM10.9996 22.6465C9.96662 22.6465 9.06509 21.9017 8.77571 20.9114H13.2234C12.934 21.9017 12.0327 22.6465 10.9996 22.6465Z" fill="#858585"/>
</svg>
