<svg width="31" height="31" viewBox="0 0 31 31" fill="none" xmlns="http://www.w3.org/2000/svg">
<g clip-path="url(#clip0_2046_42296)">
<path d="M28.9505 15.0953C26.0486 9.73058 20.9594 6.48419 15.3277 6.48419C9.69608 6.48419 4.5983 9.73058 1.72219 15.0953L1.48108 15.5L1.70497 15.9134C4.60691 21.2781 9.69608 24.5245 15.3277 24.5245C20.9594 24.5245 26.0572 21.3211 28.9505 15.9134L29.1744 15.5L28.9505 15.0953ZM15.3277 22.7592C10.4797 22.7592 6.02775 20.0553 3.44441 15.5C6.02775 10.9447 10.4797 8.24086 15.3277 8.24086C20.1758 8.24086 24.5761 10.9534 27.2025 15.5C24.5761 20.0553 20.1672 22.7592 15.3277 22.7592Z" fill="black"/>
<path d="M15.5775 9.61863C14.4099 9.62715 13.2711 9.98148 12.3048 10.6369C11.3385 11.2923 10.5881 12.2193 10.1483 13.3009C9.7086 14.3826 9.59926 15.5703 9.83413 16.714C10.069 17.8577 10.6375 18.9062 11.468 19.727C12.2984 20.5478 13.3534 21.1041 14.4998 21.3256C15.6462 21.5471 16.8325 21.424 17.9089 20.9717C18.9853 20.5194 19.9036 19.7582 20.5477 18.7844C21.1918 17.8105 21.5328 16.6676 21.5278 15.5C21.5244 14.7228 21.3677 13.9539 21.0666 13.2374C20.7655 12.5208 20.326 11.8708 19.7732 11.3244C19.2205 10.778 18.5653 10.3461 17.8453 10.0534C17.1254 9.76071 16.3547 9.61295 15.5775 9.61863ZM15.5775 19.7108C14.7528 19.7023 13.9489 19.4503 13.267 18.9865C12.585 18.5226 12.0553 17.8676 11.7444 17.1037C11.4335 16.3398 11.3552 15.501 11.5194 14.6928C11.6837 13.8845 12.083 13.1428 12.6674 12.5608C13.2518 11.9788 13.9952 11.5824 14.8041 11.4215C15.613 11.2606 16.4514 11.3423 17.2141 11.6563C17.9767 11.9703 18.6296 12.5027 19.0906 13.1866C19.5517 13.8704 19.8004 14.6753 19.8055 15.5C19.8078 16.0551 19.6999 16.6051 19.488 17.1181C19.2762 17.6312 18.9645 18.0971 18.5712 18.4888C18.1779 18.8805 17.7108 19.1902 17.1969 19.4C16.683 19.6097 16.1325 19.7154 15.5775 19.7108Z" fill="black"/>
</g>
<defs>
<clipPath id="clip0_2046_42296">
<rect width="31" height="31" fill="white"/>
</clipPath>
</defs>
</svg>
